<?xml version="1.0" encoding="utf-8"?>
<svg version="1.1" xmlns="http://www.w3.org/2000/svg" xmlns:xlink="http://www.w3.org/1999/xlink" height="24.30473624940828" width="26.430859105388663">
  <defs>
    <path id="path-1" opacity="1" fill-rule="evenodd" d="M26.25945568408556,11.87114994920303 L13.524190551614733,0.15674447103257838 C13.353978632333812,0 13.083988038684122,0 12.9137761194032,0.15674447103257838 L0.17851098693237216,11.87114994920303 C0.004128872603007323,12.03243001439736 0,12.297850206377039 0.16928889185866888,12.46398254063111 C0.33857778371733777,12.630114874885175 0.6171781806294734,12.634048416154664 0.7915602949588382,12.472768350960333 L13.219422482582498,1.039090226513346 L25.649919546021092,12.472768344831927 C25.76136391630697,12.58322468952676 25.92726856571018,12.626812348283476 26.082387641741956,12.586389463029974 C26.237506717773737,12.545966577776472 26.357026377336613,12.427999452708779 26.393942741362714,12.27888139668458 "/>
    <path id="path-2" opacity="1" fill-rule="evenodd" d="M22.88065810031839,12.59033077123786 C22.638123868673027,12.59033077123786 22.441511026784912,12.777642127639378 22.441511026784912,13.008702395458231 L22.441511026784912,23.46799300096755 L3.9973339383788877,23.46799300096755 L3.9973339383788877,13.008702395458231 C3.9973339383788877,12.777642127639378 3.800721096490772,12.59033077123786 3.558186864845411,12.59033077123786 C3.3156526332000498,12.59033077123786 3.119039791311934,12.777642127639378 3.119039791311934,13.008702395458231 L3.119039791311934,23.886364625187923 C3.119039791311934,24.117424893006778 3.3156526332000498,24.304736249408293 3.558186864845411,24.304736249408293 L22.88065810031839,24.304736249408293 C23.12319233196375,24.304736249408293 23.319805173851865,24.117424893006778 23.319805173851865,23.886364625187923 L23.319805173851865,13.008702395458231 "/>
    <path id="path-3" opacity="1" fill-rule="evenodd" d="M16.293451997316346,21.794506504085994 C16.53598622896171,21.794506504085994 16.732599070849822,21.60719514768447 16.732599070849822,21.37613487986562 L16.732599070849822,14.682188892339656 C16.732599070849822,14.451128624520802 16.53598622896171,14.263817268119283 16.293451997316346,14.263817268119283 L10.145392967847657,14.263817268119283 C9.902858736202296,14.263817268119283 9.70624589431418,14.451128624520802 9.70624589431418,14.682188892339656 L9.70624589431418,21.37613487986562 C9.70624589431418,21.60719514768447 9.902858736202296,21.794506504085994 10.145392967847657,21.794506504085994 C10.387927199493019,21.794506504085994 10.584540041381135,21.60719514768447 10.584540041381135,21.37613487986562 L10.584540041381135,15.100560516560028 L15.85430492378287,15.100560516560028 L15.85430492378287,21.37613487986562 "/>
  </defs>
  <g opacity="1">
    <g opacity="1">
      <use xlink:href="#path-1" fill="rgb(200,200,200)" fill-opacity="1"/>
    </g>
    <g opacity="1">
      <use xlink:href="#path-2" fill="rgb(200,200,200)" fill-opacity="1"/>
    </g>
    <g opacity="1">
      <use xlink:href="#path-3" fill="rgb(200,200,200)" fill-opacity="1"/>
    </g>
  </g>
</svg>