<?xml version="1.0" encoding="utf-8"?>
<svg version="1.1" xmlns="http://www.w3.org/2000/svg" xmlns:xlink="http://www.w3.org/1999/xlink" height="24.179385178044868" width="29.15888471191738">
  <defs>
    <rect id="rect-1" opacity="1" x="0.04096396979002748" y="0.003570696243968996" width="28.9375" height="24.17578125"/>
    <path id="path-2" opacity="1" fill-rule="evenodd" d="M15.841256938540027,15.661895891556469 L17.605661235415027,15.905853411087719 L18.057565532290027,16.26156630171272 C18.116159282290027,16.44552626265022 18.062448344790027,16.64498915327522 17.917672954165027,16.77993788374397 L16.637399516665027,17.95895399702522 L16.938669047915027,19.61575331343147 C16.976022563540027,19.80722059858772 16.892038188540027,20.00180067671272 16.723337016665027,20.11373915327522 C16.628610454165027,20.17550673140022 16.515817485415027,20.20748915327522 16.400583110415027,20.20523085249397 C16.313913188540027,20.20571913374397 16.228708110415027,20.18472303999397 16.153268657290027,20.14425673140022 L14.571481547915027,19.36160292280647 L12.989938579165027,20.14425673140022 C12.808542094790027,20.23165907515022 12.590524516665027,20.21487440718147 12.426462016665027,20.10086073530647 C12.262399516665027,19.98678602827522 12.180856547915027,19.79513563765022 12.215280376040027,19.60556044233772 L12.516549907290027,17.94882216108772 L11.236032329165027,16.76980604780647 C11.091256938540027,16.63479628218147 11.037546001040027,16.43533339155647 11.096139751040027,16.25143446577522 C11.162790141665027,16.06704725874397 11.333200297915027,15.933563372025219 11.537301860415027,15.905853411087719 L13.301950297915027,15.661895891556469 L14.087350688540027,14.147430559525219 C14.187448344790027,13.984222551712719 14.371774516665027,13.883758684525219 14.571481547915027,13.883758684525219 C14.771188579165027,13.883758684525219 14.955758891665027,13.984222551712719 15.055612407290027,14.147430559525219 L15.841256938540027,15.661895891556469 L15.486032329165027,17.85733046186897 C15.456979594790027,17.68905653608772 15.517282329165027,17.51803602827522 15.647409282290027,17.39993300093147 L16.346872172915027,16.75955214155647 L15.378366313540027,16.62747206343147 C15.200387797915027,16.61074843061897 15.044870219790027,16.50637831343147 14.969674907290027,16.35299696577522 L14.539254985415027,15.519561907181469 L14.108835063540027,16.35299696577522 C14.033639751040027,16.50637831343147 13.878122172915027,16.61074843061897 13.699899516665027,16.62747206343147 L12.731637797915027,16.75955214155647 L13.431100688540027,17.39993300093147 C13.561227641665027,17.51803602827522 13.621530376040027,17.68905653608772 13.592477641665027,17.85733046186897 L13.420358501040027,18.76193251265022 L14.291696391665027,18.33499159468147 C14.445504985415027,18.25357069624397 14.633004985415027,18.25357069624397 14.786813579165027,18.33499159468147 L15.658151469790027,18.76193251265022 L15.486032329165027,17.85733046186897 L15.841256938540027,15.661895891556469Z"/>
    <path id="path-3" opacity="1" fill-rule="evenodd" d="M28.978463969790027,5.294464250931469 L24.394967876040027,0.009124895462718996 C24.366647563540027,0.003631731400218996 24.337350688540027,0.003631731400218996 24.308786235415027,0.009124895462718996 C24.308786235415027,0.009124895462718996 4.9196260791650275,-0.000030377974781004013 4.8771456104150275,0.009124895462718996 C4.9638155322900275,-0.000030377974781004013 4.8195284229150275,0.003631731400218996 4.7909639697900275,0.009124895462718996 L4.7372530322900275,0.009124895462718996 C4.6835420947900275,0.009124895462718996 0.16449912604002748,5.294464250931469 0.16449912604002748,5.294464250931469 C-0.00005165520997252315,5.479583879837719 -0.00005165520997252315,5.749603411087719 0.16449912604002748,5.934784075150219 L7.5778292041650275,14.371002336868969 C7.2182100635400275,15.228180071243969 7.0355928760400275,16.14242567671272 7.0397432666650275,17.06448378218147 C7.0397432666650275,20.99392714155647 10.411813579165027,24.17935194624397 14.571481547915027,24.17935194624397 C18.731149516665027,24.17935194624397 22.103219829165027,20.99392714155647 22.103219829165027,17.06448378218147 C22.099801860415027,16.15206923140022 21.913766704165027,15.248443743118969 21.554391704165027,14.401458879837719 L28.967721782290027,5.965301653275219 L28.978463969790027,5.294464250931469 L14.571481547915027,9.949676653275219 C14.211129985415027,9.952057024368969 13.851510844790027,9.979217668900219 13.495553813540027,10.030975481400219 L10.385934672915027,6.148285051712719 L16.475778422915027,6.148285051712719 C16.772897563540027,6.148285051712719 17.013864360415027,5.920745989212719 17.013864360415027,5.640106340775219 C17.013864360415027,5.359405657181469 16.772897563540027,5.131866594681469 16.475778422915027,5.131866594681469 L9.557565532290027,5.131866594681469 L6.1359346729150275,0.801971575150219 L23.007028422915027,0.801971575150219 L15.668893657290027,9.949676653275219 L14.571481547915027,9.949676653275219 L5.0492647510400275,1.147552629837719 L1.2833956104150275,5.599456926712719 L8.115671001040027,13.374969622025219 C9.074655376040027,11.898956438431469 10.570260844790027,10.803924700150219 12.322702251040027,10.295257707962719 L5.0492647510400275,1.147552629837719 L16.831003032290027,10.274871965775219 C18.589792094790027,10.800995012650219 20.082956157290027,11.918548723587719 21.027292094790027,13.415558000931469 L27.870309672915027,5.629913469681469 L24.104440532290027,1.178009172806469 L16.831003032290027,10.274871965775219 L14.571725688540027,23.16293348921272 C11.006296001040027,23.16293348921272 8.115915141665027,20.43258680952522 8.115915141665027,17.06448378218147 C8.115915141665027,13.696380754837719 11.006296001040027,10.966034075150219 14.571725688540027,10.966034075150219 C18.137155376040027,10.966034075150219 21.027292094790027,13.696380754837719 21.027292094790027,17.06448378218147 C21.027292094790027,20.43258680952522 18.137155376040027,23.16293348921272 14.571725688540027,23.16293348921272 L28.978463969790027,5.294464250931469Z"/>
  </defs>
  <g opacity="1">
    <g opacity="1">
      <g opacity="1">
        <use xlink:href="#path-2" fill="rgb(200,200,200)" fill-opacity="1"/>
      </g>
      <g opacity="1">
        <use xlink:href="#path-3" fill="rgb(200,200,200)" fill-opacity="1"/>
      </g>
    </g>
  </g>
</svg>