<?xml version="1.0" encoding="utf-8"?>
<svg version="1.1" xmlns="http://www.w3.org/2000/svg" xmlns:xlink="http://www.w3.org/1999/xlink" height="24.265564188666872" width="25.46958318470797">
  <defs>
    <rect id="rect-1" opacity="1" x="0" y="0" width="25.469482421875" height="24.26556396484375"/>
    <path id="path-2" opacity="1" fill-rule="evenodd" d="M12.734619140625,0 C5.70849609375,0 0,5.43853759765625 0,12.13275146484375 C0,18.82696533203125 5.70849609375,24.26556396484375 12.734619140625,24.26556396484375 C19.760986328125,24.26556396484375 25.469482421875,18.82696533203125 25.469482421875,12.13275146484375 C25.472412109375,11.93389892578125 25.36279296875,11.7489013671875 25.182373046875,11.64862060546875 C25.001953125,11.54833984375 24.779052734375,11.54833984375 24.5986328125,11.64862060546875 C24.41845703125,11.7489013671875 24.308837890625,11.93389892578125 24.311767578125,12.13275146484375 C24.311767578125,18.23089599609375 19.13525390625,23.16259765625 12.734619140625,23.16259765625 C6.333984375,23.16259765625 1.15771484375,18.23089599609375 1.15771484375,12.13275146484375 C1.15771484375,6.03466796875 6.333984375,1.10296630859375 12.734619140625,1.10296630859375 C18.379150390625,1.10296630859375 23.07275390625,4.9464111328125 24.103759765625,10.03021240234375 C24.126953125,10.23822021484375 24.271484375,10.415771484375 24.477294921875,10.48883056640625 C24.682861328125,10.5618896484375 24.914306640625,10.51776123046875 25.07470703125,10.375 C25.235107421875,10.232177734375 25.296875,10.0152587890625 25.234375,9.8148193359375 C24.099853515625,4.22003173828125 18.930908203125,0 12.734619140625,0 L12.4453125,5.514892578125 C11.805908203125,5.514892578125 11.28759765625,6.00872802734375 11.28759765625,6.61785888671875 C11.28759765625,7.22705078125 11.805908203125,7.7208251953125 12.4453125,7.7208251953125 C13.084716796875,7.7208251953125 13.60302734375,7.22705078125 13.60302734375,6.61785888671875 C13.60302734375,6.00872802734375 13.084716796875,5.514892578125 12.4453125,5.514892578125 L10.166748046875,9.1219482421875 C10.26171875,8.94671630859375 10.44775390625,8.83306884765625 10.654541015625,8.8238525390625 L12.73486328125,8.8238525390625 C13.054443359375,8.82391357421875 13.313720703125,9.07080078125 13.313720703125,9.3753662109375 L13.313720703125,17.647705078125 L14.7607421875,17.647705078125 C14.9697265625,17.6448974609375 15.163818359375,17.7493896484375 15.26904296875,17.92120361328125 C15.374267578125,18.09295654296875 15.374267578125,18.305419921875 15.26904296875,18.47723388671875 C15.163818359375,18.64898681640625 14.9697265625,18.75347900390625 14.7607421875,18.75067138671875 L10.708984375,18.75067138671875 C10.502197265625,18.75994873046875 10.3056640625,18.66339111328125 10.19384765625,18.49737548828125 C10.08203125,18.33135986328125 10.07177734375,18.12109375 10.166748046875,17.94580078125 C10.26171875,17.77056884765625 10.44775390625,17.65692138671875 10.654541015625,17.647705078125 C10.672607421875,17.64691162109375 10.69091796875,17.64691162109375 10.708984375,17.647705078125 L12.156005859375,17.647705078125 L12.156005859375,9.92681884765625 L10.708984375,9.92681884765625 C10.502197265625,9.93609619140625 10.3056640625,9.83953857421875 10.19384765625,9.67352294921875 C10.08203125,9.50750732421875 10.07177734375,9.2972412109375 10.166748046875,9.1219482421875 L12.734619140625,0Z"/>
  </defs>
  <g opacity="1">
    <g opacity="1">
      <use xlink:href="#path-2" fill="rgb(200,200,200)" fill-opacity="1"/>
    </g>
  </g>
</svg>