<?xml version="1.0" encoding="utf-8"?>
<svg version="1.1" xmlns="http://www.w3.org/2000/svg" xmlns:xlink="http://www.w3.org/1999/xlink" height="23.8714599609375" width="25.057407282764416">
  <defs>
    <rect id="rect-1" opacity="1" x="0.00003423588941586786" y="0" width="25.057373046875" height="23.8714599609375"/>
    <path id="path-2" opacity="1" fill-rule="evenodd" d="M17.202915095264416,0.85845947265625 C15.717563532764416,0.2889404296875 14.144809626514416,0 12.528598689014416,0 C6.215610407764416,0 0.8703955640144159,4.494140625 0.09573736088941587,10.4534912109375 C0.03226079838941587,10.94073486328125 0.00003423588941586786,11.43988037109375 0.00003423588941586786,11.9366455078125 C0.00003423588941586786,18.5177001953125 5.620395564014416,23.8714599609375 12.528598689014416,23.8714599609375 C15.025913142139416,23.8714599609375 17.352817439014416,23.1695556640625 19.308627985889416,21.964599609375 C19.378940485889416,21.94073486328125 19.441440485889416,21.90350341796875 19.491245173389416,21.85308837890625 C22.845493220264416,19.70916748046875 25.057407282764416,16.0645751953125 25.057407282764416,11.93603515625 C25.057407282764416,7.03515625 21.974643610889416,2.68658447265625 17.202915095264416,0.85845947265625 L19.585971735889416,20.20269775390625 C19.593540095264416,20.2650146484375 19.599399470264416,20.44482421875 19.605014704639416,20.67083740234375 C22.348178767139416,18.65008544921875 24.118442439014416,15.4873046875 24.118442439014416,11.93634033203125 C24.118442439014416,7.4022216796875 21.266391657764416,3.37982177734375 16.852329157764416,1.68829345703125 C15.478794001514416,1.16168212890625 14.023960017139416,0.89453125 12.528842829639416,0.89453125 C6.688510798389416,0.89453125 1.7444190015144159,5.0513916015625 1.0278662671394159,10.56353759765625 C0.9687842358894159,11.01434326171875 0.9389990796394159,11.4765625 0.9389990796394159,11.93634033203125 C0.9389990796394159,15.48638916015625 2.709018610889416,18.64825439453125 5.449985407764416,20.6693115234375 C5.464877985889416,20.36456298828125 5.491001032764416,20.02081298828125 5.531772517139416,19.8016357421875 C6.046176814014416,17.08819580078125 8.531040095264416,15.5943603515625 12.528842829639416,15.5943603515625 C16.617710017139416,15.5943603515625 19.256137751514416,17.31689453125 19.585971735889416,20.20269775390625 L12.528842829639416,5.81475830078125 C10.224155329639416,5.81475830078125 8.614536189014416,7.4520263671875 8.614536189014416,9.79632568359375 C8.614536189014416,12.27001953125 10.370395564014416,14.28240966796875 12.528842829639416,14.28240966796875 C14.687045954639416,14.28240966796875 16.442905329639416,12.27001953125 16.442905329639416,9.79632568359375 C16.442905329639416,7.4520263671875 14.833286189014416,5.81475830078125 12.528842829639416,5.81475830078125 L9.553501032764416,9.7960205078125 C9.553501032764416,11.7764892578125 10.887973689014416,13.3875732421875 12.528842829639416,13.3875732421875 C14.168979548389416,13.3875732421875 15.503940485889416,11.7764892578125 15.503940485889416,9.7960205078125 C15.503940485889416,7.94940185546875 14.308383845264416,6.708984375 12.528842829639416,6.708984375 C10.749057673389416,6.708984375 9.553501032764416,7.94970703125 9.553501032764416,9.7960205078125 L12.528354548389416,22.9769287109375 C10.263461970264416,22.9769287109375 8.149692439014416,22.3519287109375 6.362338923389416,21.27789306640625 C6.369419001514416,21.24688720703125 6.374301814014416,21.21441650390625 6.374301814014416,21.1810302734375 C6.374301814014416,20.8619384765625 6.406040095264416,20.22711181640625 6.455844782764416,19.9593505859375 C7.028354548389416,16.939453125 10.506626032764416,16.4888916015625 12.528842829639416,16.4888916015625 C14.239047907764416,16.4888916015625 18.259799860889416,16.86041259765625 18.652622126514416,20.29840087890625 C18.659458064014416,20.36968994140625 18.669956110889416,20.762939453125 18.677768610889416,21.28802490234375 C16.894321345264416,22.3564453125 14.786655329639416,22.9769287109375 12.528354548389416,22.9769287109375 L17.202915095264416,0.85845947265625Z"/>
  </defs>
  <g opacity="1">
    <g opacity="1">
      <use xlink:href="#path-2" fill="rgb(200,200,200)" fill-opacity="1"/>
    </g>
  </g>
</svg>